<svg xmlns="http://www.w3.org/2000/svg" width="338.333" height="338.333" viewBox="0 0 253.75 253.75"><path d="M126.813 253.75h.124c70.036 0 126.813-56.777 126.813-126.813v-.062C253.75 56.805 196.945 0 126.875 0S0 56.805 0 126.875v.063C0 196.972 56.777 253.75 126.813 253.75" fill="#364db8"/><path d="M138.813 207.398v-70.324h23.601l3.535-27.406h-27.137v-17.5c0-7.934 2.204-13.34 13.579-13.34l14.515-.008V54.31c-2.511-.332-11.125-1.079-21.148-1.079-20.922 0-35.25 12.77-35.25 36.227v20.211H86.844v27.406h23.664v70.324zm0 0" fill="#fff"/></svg>