<svg height="512pt" viewBox="-22 0 512 512" width="512pt" xmlns="http://www.w3.org/2000/svg"><path fill="#d198ff" d="M468.484 180.707c.004-48.086-18.843-93.414-53.066-127.637C381.195 18.848 335.868 0 287.778 0H180.702C132.621 0 87.29 18.848 53.07 53.066 18.848 87.293 0 132.621 0 180.707v84.164c0 37.242 11.36 73.063 32.852 103.598 18.96 26.937 44.46 47.98 74.191 61.32v48.344c0 24.996 13.996 33.867 25.98 33.867 8.563 0 17.125-4.227 25.461-12.559l53.86-53.859 75.437-.004c48.086 0 93.414-18.848 127.637-53.066 34.223-34.223 53.07-79.555 53.07-127.64zM287.781 415.578l-81.648.004c-3.98 0-7.793 1.578-10.606 4.39l-58.254 58.255c-.074.078-.152.152-.23.226v-58.676a15 15 0 00-9.652-14.015c-58.25-22.227-97.387-78.848-97.387-140.89v-84.165c0-40.074 15.726-77.871 44.281-106.43C102.84 45.727 140.633 30 180.707 30h107.07c40.075 0 77.871 15.727 106.426 44.281 28.559 28.559 44.285 66.356 44.281 106.426l.004 84.164c-.004 83.102-67.61 150.707-150.707 150.707zm0 0"/><path fill="#d198ff" d="M274.133 245.336c-5.856-5.86-15.352-5.86-21.211 0l-12.117 12.113-46.953-46.949 12.117-12.113a15.003 15.003 0 000-21.215l-56.805-56.805a14.996 14.996 0 00-21.21 0l-39.766 39.766c-21.504 21.504-21.504 56.5.003 78.015l124.965 124.973c10.39 10.387 24.246 16.106 39.008 16.106 14.766 0 28.621-5.72 39.012-16.106l39.765-39.762a15.012 15.012 0 004.395-10.609c0-3.977-1.582-7.793-4.395-10.605zm-4.172 96.566c-4.723 4.723-11.043 7.325-17.797 7.325-6.754 0-13.074-2.602-17.797-7.325l-124.96-124.968c-9.813-9.813-9.817-25.782-.005-35.59l29.157-29.16 35.59 35.593-12.118 12.114a15.003 15.003 0 00-4.394 10.605c0 3.98 1.582 7.793 4.394 10.61l68.164 68.164c5.86 5.855 15.356 5.859 21.215 0l12.117-12.114 35.59 35.59zM237.883 66.355c-8.285 0-15 6.715-15 15 0 8.282 6.715 15 15 15 34.328 0 66.605 13.368 90.879 37.645 24.277 24.273 37.644 56.547 37.644 90.879 0 8.281 6.715 15 15 15 8.281 0 15-6.715 15-15 0-42.344-16.488-82.152-46.43-112.094-29.94-29.941-69.75-46.43-112.093-46.43zm0 0"/><path fill="#d198ff" d="M302.14 224.875c0 8.281 6.72 15 15 15 8.286 0 15-6.719 15-15 0-51.973-42.285-94.254-94.257-94.254-8.285 0-15 6.715-15 15s6.715 15 15 15c35.433 0 64.258 28.824 64.258 64.254zm0 0"/></svg>