<svg xmlns="http://www.w3.org/2000/svg" viewBox="0 0 511 511"><path d="M255.5 11c-10.9 0-20.7 6.5-25 16.5L172.2 164 24.7 177.3c-10.8 1-20 8.3-23.4 18.7-3.4 10.4-.2 21.7 8 28.9l111.5 97.8-32.9 144.8c-2.4 10.6 1.7 21.6 10.6 28 4.7 3.4 10.3 5.2 15.9 5.2 4.8 0 9.6-1.3 13.9-3.9l127.2-76.1V11z" fill="#fed42d"/><path d="M255.5 11c10.9 0 20.7 6.5 25 16.5L338.8 164l147.5 13.4c10.8 1 20 8.3 23.4 18.7 3.4 10.4.2 21.7-8 28.9l-111.5 97.8 32.9 144.8c2.4 10.6-1.7 21.6-10.6 28-4.7 3.4-10.3 5.2-15.9 5.2-4.8 0-9.6-1.3-13.9-3.9l-127.2-76.1V11z" fill="#fcbf29"/></svg>