<svg xmlns="http://www.w3.org/2000/svg" viewBox="0 0 480 480"><path d="M392.6 51.8h-299c-35.3 0-64.1 28.7-64.1 64.1v140.6c0 35.3 28.7 64.1 64.1 64.1h19.8L88 440.3c-.5 2.7.5 5.4 2.8 7.1 2.2 1.7 5.2 1.9 7.6.6l146.5-127.5h147.8c35.3 0 64.1-28.7 64.1-64.1V115.9c-.1-35.3-28.8-64.1-64.2-64.1zm49.9 204.7c0 27.5-22.3 49.8-49.8 49.8H243.1c-1.2 0-2.3.3-3.3.8L104.9 428.5 129 315c.4-2.1-.1-4.3-1.4-6-1.3-1.7-3.4-2.6-5.5-2.6H93.6c-27.5 0-49.8-22.3-49.8-49.8V115.9c0-27.5 22.3-49.8 49.8-49.8h299.1c27.5 0 49.8 22.3 49.8 49.8v140.6z" stroke="#828181" stroke-width="16" stroke-miterlimit="10"/></svg>