<svg version="1.1" id="Capa_1" xmlns="http://www.w3.org/2000/svg" x="0" y="0" viewBox="0 0 594.4 548.5" xml:space="preserve"><style>.st3{fill:#ffb74f}.st5{fill:#e67500}.st9{fill:#eba72e}</style><linearGradient id="SVGID_1_" gradientUnits="userSpaceOnUse" x1="362.801" y1="496.006" x2="272.233" y2="260.067"><stop offset="0" stop-color="#fff"/><stop offset="1"/></linearGradient><path opacity=".19" fill="url(#SVGID_1_)" d="M589.7 331.8l-127.3-56.7-442.9 82 249.6 94 196.1 5.6z"/><path d="M368 71.2l-9.3 3.2-338.8-.9-4.9-2.3 187.5-51.9c2.8-.9 7.6-2.3 9.2-2.3h246.8c1.6 0 3.2.9 4 2.3L368 71.2z" fill="#ff9901"/><path d="M363.5 357.1h-344c-2.5 0-4.5-2-4.5-4.5V71.2h353v281.4c0 2.4-2 4.5-4.5 4.5z" fill="#ffc473"/><path class="st3" d="M350.3 71.2v47.7c0 121.4-98.4 219.8-219.8 219.8H15v13.9c0 2.5 2 4.5 4.5 4.5h343.9c2.5 0 4.5-2 4.5-4.5V71.2h-17.6z"/><path d="M458.5 17h-45.1L310.3 71.2H368l94.4-51.8c-.8-1.5-2.3-2.4-3.9-2.4z" fill="#ff8900"/><path class="st5" d="M227.2 71.2h-77.4L302.4 17H361z"/><path class="st3" d="M221.4 148.6h-65.9c-3.2 0-5.8-2.6-5.8-5.8V71.2h77.5v71.7c-.1 3.1-2.7 5.7-5.8 5.7z"/><path d="M133.3 318.2H57.2c-2.7 0-4.8-2.2-4.8-4.8v-65.6c0-2.7 2.2-4.8 4.8-4.8h76.1c2.7 0 4.8 2.2 4.8 4.8v65.6c0 2.6-2.1 4.8-4.8 4.8z" fill="#ffdba9"/><path class="st5" d="M133.1 114.1H52.4c-3.4 0-6.2-2.8-6.2-6.2s2.8-6.2 6.2-6.2h80.7c3.4 0 6.2 2.8 6.2 6.2 0 3.5-2.8 6.2-6.2 6.2zm-26.9 26.6H52.4c-3.4 0-6.2-2.8-6.2-6.2s2.8-6.2 6.2-6.2h53.8c3.4 0 6.2 2.8 6.2 6.2-.1 3.5-2.8 6.2-6.2 6.2zm356.2 134.4l-96.7 81.4-1.6.5 3.9-4.1V71.2l94.4-52z"/><linearGradient id="SVGID_2_" gradientUnits="userSpaceOnUse" x1="315.77" y1="537.934" x2="279.045" y2="442.264"><stop offset="0" stop-color="#fff"/><stop offset="1"/></linearGradient><ellipse cx="297.4" cy="490.1" rx="80.3" ry="45.4" opacity=".19" fill="url(#SVGID_2_)"/><path d="M280.3 334h-22.8v156.1h22.8c43.1 0 78-34.9 78-78s-34.9-78.1-78-78.1z" fill="#f7b030"/><path class="st9" d="M358.3 412.1h-22.8c-1.8 0-3.3-1.5-3.3-3.3 0-1.8 1.5-3.3 3.3-3.3H358c.2 2.2.3 4.4.3 6.6zm-4.4-26.1h-24.8c-1.8 0-3.3-1.5-3.3-3.3 0-1.8 1.5-3.3 3.3-3.3h22.2c.9 2.3 1.8 4.4 2.6 6.6zm-15.5-26h-25.6c-1.8 0-3.3-1.5-3.3-3.3 0-1.8 1.5-3.3 3.3-3.3h19.1c2.3 2.2 4.5 4.3 6.5 6.6zm17.5 71.6c-.6 2.2-1.2 4.4-2 6.5h-21.6c-1.8 0-3.3-1.5-3.3-3.3 0-1.8 1.5-3.3 3.3-3.3h23.6zm-12.2 26c-1.6 2.3-3.4 4.4-5.2 6.5H316c-1.8 0-3.3-1.5-3.3-3.3 0-1.8 1.5-3.3 3.3-3.3h27.7z"/><circle cx="260.8" cy="412.1" r="78" fill="#ffd33a"/><path d="M182.3 321c7.7-4.8 9.3-11.9 9.8-19.5-.1 7.2 2.6 15.4 9.8 19.5-6.7 4.6-9.1 13.5-9.8 19.5-.6-6-3.1-14.9-9.8-19.5zm101.2 13c7.7-4.8 9.3-11.9 9.8-19.5-.1 7.2 2.6 15.4 9.8 19.5-6.7 4.6-9.1 13.5-9.8 19.5-.6-6-3.1-14.9-9.8-19.5zm-81.3 136.6c7.7-4.8 9.3-11.9 9.8-19.5-.1 7.2 2.6 15.4 9.8 19.5-6.7 4.6-9.1 13.5-9.8 19.5-.6-6-3.1-14.9-9.8-19.5z" fill="#eb423f"/><path class="st9" d="M260.8 473.8c-8.3 0-16.4-1.6-24-4.8-1.7-.7-2.4-2.6-1.7-4.3.7-1.7 2.6-2.4 4.3-1.7 6.8 2.9 14.1 4.3 21.5 4.3 30.5 0 55.3-24.8 55.3-55.3 0-10.9-3.2-21.6-9.3-30.7-1-1.5-.6-3.5.9-4.5s3.5-.6 4.5.9c6.8 10.2 10.4 22.1 10.4 34.3-.2 34.1-27.9 61.8-61.9 61.8zm-56.3-42.2c-1.4 0-2.7-1-3.1-2.4-1.6-5.6-2.4-11.4-2.4-17.2 0-34.1 27.7-61.8 61.8-61.8 3.4 0 6.9.3 10.3.9 1.8.3 3 2 2.7 3.7-.3 1.8-2 3-3.7 2.7-3-.5-6.1-.8-9.2-.8-30.5 0-55.3 24.8-55.3 55.3 0 5.2.7 10.4 2.2 15.4.5 1.7-.5 3.5-2.2 4-.5.1-.8.2-1.1.2z"/><text transform="translate(230.405 448.714)" class="st5" font-size="113.545" font-family="MyriadPro-Regular">0</text></svg>