<svg xmlns="http://www.w3.org/2000/svg" width="338.333" height="338.333" viewBox="0 0 253.75 253.75"><path d="M126.813 253.75h.124c70.036 0 126.813-56.777 126.813-126.813v-.062C253.75 56.805 196.945 0 126.875 0S0 56.805 0 126.875v.063C0 196.972 56.777 253.75 126.813 253.75" fill="#e61922"/><path d="M113.344 147.05v-38.777l36.972 19.387zm82.172-52.124C193.8 87.488 187.719 82 180.398 81.184c-17.34-1.938-34.894-1.946-52.367-1.938-17.476-.008-35.031 0-52.37 1.938-7.321.816-13.403 6.304-15.114 13.742-2.434 10.594-2.461 22.152-2.461 33.058 0 10.907 0 22.465 2.434 33.059 1.71 7.437 7.789 12.926 15.113 13.742 17.34 1.934 34.894 1.945 52.367 1.934 17.477.011 35.027 0 52.367-1.938 7.324-.812 13.406-6.3 15.121-13.738 2.434-10.594 2.45-22.152 2.45-33.059 0-10.906.011-22.464-2.422-33.058" fill="#fff"/></svg>