<svg version="1.1" id="Capa_1" xmlns="http://www.w3.org/2000/svg" x="0" y="0" viewBox="0 0 512 512" xml:space="preserve"><style>.st17{fill:#ce3636}.st18{fill:#a01313}</style><linearGradient id="SVGID_1_" gradientUnits="userSpaceOnUse" x1="186.693" y1="398.889" x2="373.368" y2="641.718" gradientTransform="translate(1.283 -81.988) scale(1.0039)"><stop offset="0" stop-color="#4a98f7"/><stop offset="1" stop-color="#0469bc"/></linearGradient><path d="M255.6 224.6c-66.4.2-119.8 55.1-119.8 121.5V506c0 4.9 5.5 7.7 9.5 4.9l99.3-69.2c6.8-4.8 15.9-4.8 22.8 0l99.3 69.2c4 2.8 9.5-.1 9.5-4.9V344.8c0-66.5-54-120.4-120.6-120.2z" fill="url(#SVGID_1_)"/><linearGradient id="SVGID_2_" gradientUnits="userSpaceOnUse" x1="262.599" y1="513.394" x2="254.258" y2="395.78" gradientTransform="translate(1.283 -81.988) scale(1.0039)"><stop offset="0" stop-color="#0469bc" stop-opacity="0"/><stop offset="1" stop-color="#0469bc"/></linearGradient><path d="M376.2 506V344.8c0-66.5-54.1-120.4-120.6-120.2-57.1.2-104.5 40.7-116.7 94.3l.3 1.5 117.7 117.7c3.7.2 7.3 1.3 10.5 3.5l99.3 69.2c4 2.9 9.5 0 9.5-4.8z" fill="url(#SVGID_2_)"/><linearGradient id="SVGID_3_" gradientUnits="userSpaceOnUse" x1="136.277" y1="406.81" x2="243.948" y2="546.87" gradientTransform="translate(1.283 -81.988) scale(1.0039)"><stop offset="0" stop-color="#f9f7fc"/><stop offset="1" stop-color="#f0ddfc"/></linearGradient><path d="M186.9 246.8v235.1l-25.6 17.8V271.4c7.3-9.4 15.9-17.7 25.6-24.6z" fill="url(#SVGID_3_)"/><linearGradient id="SVGID_4_" gradientUnits="userSpaceOnUse" x1="291.59" y1="399.736" x2="416.534" y2="562.265" gradientTransform="translate(1.283 -81.988) scale(1.0039)"><stop offset="0" stop-color="#f9f7fc"/><stop offset="1" stop-color="#f0ddfc"/></linearGradient><path d="M350.7 270.8v229L325.1 482V246.4c9.7 6.9 18.3 15.1 25.6 24.4z" fill="url(#SVGID_4_)"/><linearGradient id="SVGID_5_" gradientUnits="userSpaceOnUse" x1="303.322" y1="433.625" x2="101.507" y2="286.964" gradientTransform="translate(1.283 -81.988) scale(1.0039)"><stop offset="0" stop-color="#18cffc" stop-opacity="0"/><stop offset="1" stop-color="#65e1dc"/></linearGradient><path d="M256 224.6v213.5c4 0 8 1.2 11.4 3.6l99.3 69.2c4 2.8 9.5-.1 9.5-4.9V344.8c0-66.4-53.8-120.2-120.2-120.2z" fill="url(#SVGID_5_)"/><linearGradient id="SVGID_6_" gradientUnits="userSpaceOnUse" x1="253.728" y1="567.938" x2="253.728" y2="397.055" gradientTransform="translate(1.283 -81.988) scale(1.0039)"><stop offset="0" stop-color="#0469bc" stop-opacity="0"/><stop offset="1" stop-color="#0469bc"/></linearGradient><path d="M366.7 491.4l-99.3-69.2c-6.8-4.8-15.9-4.8-22.8 0l-99.3 69.2c-4 2.8-9.5-.1-9.5-4.9V506c0 4.9 5.5 7.7 9.5 4.9l99.3-69.2c6.8-4.8 15.9-4.8 22.8 0l99.3 69.2c4 2.8 9.5-.1 9.5-4.9v-19.5c0 4.8-5.5 7.7-9.5 4.9z" fill="url(#SVGID_6_)"/><linearGradient id="SVGID_7_" gradientUnits="userSpaceOnUse" x1="172.146" y1="515.086" x2="172.146" y2="389.055" gradientTransform="translate(1.283 -81.988) scale(1.0039)"><stop offset="0" stop-color="#f0ddfc" stop-opacity="0"/><stop offset=".289" stop-color="#c8b7e0" stop-opacity=".289"/><stop offset=".592" stop-color="#a595c8" stop-opacity=".592"/><stop offset=".84" stop-color="#8f81b8" stop-opacity=".84"/><stop offset="1" stop-color="#8779b3"/></linearGradient><path d="M186.9 246.7v121.4l-25.6-25.6v-71.2c.5-.7 1-1.3 1.6-2s1.1-1.4 1.7-2.1c.5-.6.9-1.1 1.4-1.6 1-1.1 1.9-2.2 2.9-3.2.4-.4.7-.8 1.1-1.1 1-1 1.9-2 2.9-3 1-.9 2-1.9 3-2.8.2-.2.4-.3.6-.5.5-.5 1-.9 1.6-1.4.9-.8 1.7-1.5 2.6-2.2.4-.3.8-.7 1.3-1l1.2-.9c.8-.6 1.6-1.2 2.5-1.8.3-.3.8-.6 1.2-1z" fill="url(#SVGID_7_)"/><linearGradient id="SVGID_8_" gradientUnits="userSpaceOnUse" x1="335.31" y1="515.086" x2="335.31" y2="389.055" gradientTransform="translate(1.283 -81.988) scale(1.0039)"><stop offset="0" stop-color="#f0ddfc" stop-opacity="0"/><stop offset=".289" stop-color="#c8b7e0" stop-opacity=".289"/><stop offset=".592" stop-color="#a595c8" stop-opacity=".592"/><stop offset=".84" stop-color="#8f81b8" stop-opacity=".84"/><stop offset="1" stop-color="#8779b3"/></linearGradient><path d="M350.7 270.8v229L325.1 482V246.4c9.7 6.9 18.3 15.1 25.6 24.4z" fill="url(#SVGID_8_)"/><linearGradient id="SVGID_9_" gradientUnits="userSpaceOnUse" x1="74.925" y1="260.572" x2="432.53" y2="260.572" gradientTransform="translate(1.283 -81.988) scale(1.0039)"><stop offset="0" stop-color="#ffda45"/><stop offset="1" stop-color="#ffa425"/></linearGradient><path d="M435.5 160.6C435.5 71.9 355.2 0 256 0S76.5 71.9 76.5 160.6v38c0 88.7 80.4 160.6 179.5 160.6s179.5-71.9 179.5-160.6v-38z" fill="url(#SVGID_9_)"/><linearGradient id="SVGID_10_" gradientUnits="userSpaceOnUse" x1="333.919" y1="286.562" x2="461.563" y2="327.94" gradientTransform="translate(1.283 -81.988) scale(1.0039)"><stop offset="0" stop-color="#ffda45" stop-opacity="0"/><stop offset=".519" stop-color="#d9874f" stop-opacity=".519"/><stop offset="1" stop-color="#b53759"/></linearGradient><path d="M435.5 160.6C435.5 71.9 355.2 0 256 0S76.5 71.9 76.5 160.6v38c0 88.7 80.4 160.6 179.5 160.6s179.5-71.9 179.5-160.6v-38z" fill="url(#SVGID_10_)"/><linearGradient id="SVGID_11_" gradientUnits="userSpaceOnUse" x1="236.702" y1="227.781" x2="383.7" y2="510.467" gradientTransform="translate(1.283 -81.988) scale(1.0039)"><stop offset="0" stop-color="#ffda45" stop-opacity="0"/><stop offset=".519" stop-color="#d9874f" stop-opacity=".519"/><stop offset="1" stop-color="#b53759"/></linearGradient><path d="M403.9 69.5C371.5 27.5 317.3 0 256 0S140.5 27.5 108.1 69.5v220.1c32.4 42 86.5 69.5 147.9 69.5s115.5-27.5 147.9-69.5V69.5z" fill="url(#SVGID_11_)"/><linearGradient id="SVGID_12_" gradientUnits="userSpaceOnUse" x1="248.225" y1="316.332" x2="230.863" y2="492.433" gradientTransform="translate(1.283 -81.988) scale(1.0039)"><stop offset="0" stop-color="#ffda45" stop-opacity="0"/><stop offset=".519" stop-color="#d9874f" stop-opacity=".519"/><stop offset="1" stop-color="#b53759"/></linearGradient><path d="M150.7 328.6c29.6 19.2 66 30.5 105.3 30.5s75.7-11.3 105.3-30.5v-298C331.7 11.3 295.3 0 256 0s-75.7 11.3-105.3 30.5v298.1z" fill="url(#SVGID_12_)"/><linearGradient id="SVGID_13_" gradientUnits="userSpaceOnUse" x1="218.305" y1="325.309" x2="164.634" y2="423.471" gradientTransform="translate(1.283 -81.988) scale(1.0039)"><stop offset="0" stop-color="#ffda45" stop-opacity="0"/><stop offset=".519" stop-color="#d9874f" stop-opacity=".519"/><stop offset="1" stop-color="#b53759"/></linearGradient><path d="M215.2 354.9c13.1 2.7 26.8 4.2 40.8 4.2s27.7-1.4 40.8-4.2V4.2C283.7 1.4 270 0 256 0s-27.7 1.4-40.8 4.2v350.7z" fill="url(#SVGID_13_)"/><linearGradient id="SVGID_14_" gradientUnits="userSpaceOnUse" x1="74.925" y1="241.646" x2="432.53" y2="241.646" gradientTransform="translate(1.283 -81.988) scale(1.0039)"><stop offset="0" stop-color="#ffda45"/><stop offset="1" stop-color="#ffa425"/></linearGradient><ellipse cx="256" cy="160.6" rx="179.5" ry="160.6" fill="url(#SVGID_14_)"/><linearGradient id="SVGID_15_" gradientUnits="userSpaceOnUse" x1="-1421.842" y1="241.646" x2="-1104.081" y2="241.646" gradientTransform="matrix(-1.0039 0 0 1.0039 -1011.887 -81.988)"><stop offset="0" stop-color="#ffda45"/><stop offset="1" stop-color="#ffa425"/></linearGradient><ellipse cx="256" cy="160.6" rx="159.5" ry="142.7" fill="url(#SVGID_15_)"/><linearGradient id="SVGID_16_" gradientUnits="userSpaceOnUse" x1="109.889" y1="241.646" x2="397.567" y2="241.646" gradientTransform="translate(1.283 -81.988) scale(1.0039)"><stop offset="0" stop-color="#ffda45"/><stop offset="1" stop-color="#ffa425"/></linearGradient><ellipse cx="256" cy="160.6" rx="144.4" ry="129.1" fill="url(#SVGID_16_)"/><linearGradient id="SVGID_17_" gradientUnits="userSpaceOnUse" x1="245.774" y1="228.473" x2="151.272" y2="97.391" gradientTransform="translate(1.283 -81.988) scale(1.0039)"><stop offset="0" stop-color="#ffda45" stop-opacity="0"/><stop offset="1" stop-color="#fcee21"/></linearGradient><ellipse cx="256.9" cy="159.7" rx="129.1" ry="115.5" fill="url(#SVGID_17_)"/><path class="st17" d="M159.4 161.7c0 29.2 16.3 55 41.3 70.6 4.4 2.8 4.6 8.5.4 11.4l-.1.1c-2.8 1.9-6.6 2.1-9.5.3-29.2-18.2-48.2-48.3-48.2-82.4 0-55.3 51.5-100.1 113.6-100.6v14.3c-53.2.5-97.5 38.9-97.5 86.3z"/><path class="st18" d="M259.8 48.2l29.7 18c1.6 1 1.6 3 0 4l-29.7 18c-1.8 1.1-4.3-.1-4.3-2v-36c0-1.9 2.5-3.1 4.3-2z"/><path class="st17" d="M355.8 161.2c0-29.2-16.3-55-41.3-70.6-4.4-2.8-4.6-8.5-.4-11.4l.1-.1c2.8-1.9 6.6-2.1 9.5-.3C352.9 97 372 127.2 372 161.2c0 55.3-51.4 100.1-113.5 100.6v-14.3c53.2-.5 97.3-38.9 97.3-86.3z"/><path class="st18" d="M255.4 274.7l-29.7-18c-1.6-1-1.6-3 0-4l29.7-18c1.8-1.1 4.3.1 4.3 2v36.1c0 1.8-2.4 3-4.3 1.9z"/><path class="st17" d="M308 145.7l-48.6 35.8-12.2 9c-2.9 2.1-6.5 3.3-10.3 3.3-.6 0-1.2 0-1.9-.1-4.3-.5-8.3-2.5-10.9-5.6l-18.9-22.4c-4.3-5.1-3.1-12.2 2.6-16 5.7-3.8 13.8-2.8 18 2.3l12.8 15.1.1-.1 52.9-39c5.5-4 13.6-3.4 18.1 1.5 4.5 5 3.8 12.2-1.7 16.2z"/><path class="st18" d="M308 145.5l-48.6 35.8c-7.9-3.5-14.9-8.4-20.7-14.5l52.9-39c5.5-4 13.6-3.4 18.1 1.5 4.5 4.9 3.8 12.1-1.7 16.2z"/></svg>