<svg xmlns="http://www.w3.org/2000/svg" width="338.333" height="338.251" viewBox="0 0 253.75 253.688"><defs><clipPath id="a"><path d="M0 0h253.75v253.688H0zm0 0"/></clipPath></defs><g clip-path="url(#a)"><path d="M126.813 253.688h.124c70.036 0 126.813-56.774 126.813-126.813C253.75 56.805 196.945 0 126.875 0S0 56.805 0 126.875c0 70.04 56.777 126.813 126.813 126.813" fill="#ff9b22"/></g><path d="M126.375 80.145c8.145 0 14.77 6.625 14.77 14.77 0 8.136-6.625 14.76-14.77 14.76-8.137 0-14.77-6.624-14.77-14.76 0-8.145 6.633-14.77 14.77-14.77m0 50.43c19.676 0 35.672-15.997 35.672-35.66 0-19.673-15.996-35.673-35.672-35.673-19.672 0-35.668 16-35.668 35.672 0 19.664 15.996 35.66 35.668 35.66m14.434 29.098a66.859 66.859 0 0020.71-8.578c4.883-3.078 6.352-9.531 3.278-14.41a10.443 10.443 0 00-14.41-3.29c-14.61 9.192-33.426 9.184-48.028 0-4.886-3.074-11.336-1.605-14.406 3.29-3.074 4.882-1.605 11.332 3.274 14.41a66.974 66.974 0 0020.714 8.578l-19.945 19.941c-4.074 4.082-4.074 10.696.004 14.778a10.433 10.433 0 007.39 3.058 10.44 10.44 0 007.395-3.058l19.586-19.598 19.606 19.598c4.078 4.082 10.691 4.082 14.773 0 4.082-4.082 4.082-10.7 0-14.778zm0 0" fill="#fff"/></svg>