<svg xmlns="http://www.w3.org/2000/svg" width="338.333" height="338.333" viewBox="0 0 253.75 253.75"><path d="M126.813 253.75h.124c70.036 0 126.813-56.777 126.813-126.813v-.062C253.75 56.805 196.945 0 126.875 0S0 56.805 0 126.875v.063C0 196.972 56.777 253.75 126.813 253.75" fill="#5d8dc1"/><path d="M147.008 158.543c-1.328 2.398-3.43 4.219-6.309 5.46-3.273 1.411-6.492 2.595-9.652 2.708-3.164.113-8.867.59-17.11.59h-2.511V134.75h6.664c5.644 0 10.144.105 13.508.188 3.355.085 5.996.527 7.918 1.257 3.16 1.13 5.53 2.809 7.113 5.012 1.578 2.203 2.371 5.258 2.371 9.156 0 3.047-.664 5.778-1.992 8.18m-35.582-72.094h3.023c5.645 0 9.89.117 12.742.203 2.852.086 5.32.618 7.41 1.52 2.204.96 3.825 2.531 4.872 4.68 1.043 2.144 1.566 4.242 1.566 6.273 0 2.77-.48 5.2-1.441 7.29-.961 2.089-2.711 3.726-5.25 4.913-2.317 1.07-4.559 1.902-6.73 2.016-2.177.113-5.973.406-11.391.406h-4.801zm62.984 44.063c-4.687-5.051-11.535-8.399-18.887-10.035v-.68c5.25-2.254 9.836-5.785 12.915-10.582 3.074-4.8 4.699-10.278 4.699-16.43 0-5.308-1.075-9.992-3.305-14.058-2.23-4.067-5.582-7.313-10.102-9.739-4.175-2.258-8.636-3.808-13.406-4.511-4.773-.707-11.777-1.125-21.035-1.125H79.926v127.046h51.289c8.75 0 15.96-1.199 21.637-2.78 5.675-1.579 10.882-4.438 15.625-8.165 4.007-3.105 7.199-7.133 9.57-11.875 2.371-4.742 3.473-10.3 3.473-16.562 0-8.582-2.426-15.453-7.11-20.504" fill="#fff"/></svg>