<svg xmlns="http://www.w3.org/2000/svg" viewBox="0 0 490.667 490.667"><path d="M475.094 347.09a53.33 53.33 0 01-37.76 15.573h-384a53.333 53.333 0 01-37.76-15.573l174.08-174.08 29.44 21.333c15.596 11.522 36.884 11.522 52.48 0l29.44-21.333 174.08 174.08z" fill="#ffa000"/><path d="M480.427 43.303L301.014 173.01l-29.44 21.333c-15.596 11.522-36.884 11.522-52.48 0l-29.44-21.333L10.027 43.516a53.035 53.035 0 0143.307-22.187h384a53.334 53.334 0 0143.093 21.974z" fill="#ffd54f"/><path d="M10.027 43.516L189.654 173.01 15.574 347.09A53.338 53.338 0 010 309.33V74.663a52.697 52.697 0 0110.027-31.147zm480.64 31.147V309.33a53.333 53.333 0 01-15.573 37.76l-174.08-174.08L480.427 43.303a53.033 53.033 0 0110.24 31.36z" fill="#ffc107"/><path d="M296.896 299.388a53.335 53.335 0 00-51.563 20.608 53.333 53.333 0 00-51.563-20.608c-26.577 5.376-45.372 29.178-44.437 56.277a52.952 52.952 0 0015.616 37.717l72.832 72.832c4.165 4.164 10.917 4.164 15.083 0l72.832-72.832a53.867 53.867 0 0015.616-39.083c.439-26.641-18.27-49.771-44.416-54.911z" fill="#d81b60"/></svg>