<?xml version="1.0" encoding="utf-8"?>
<!-- Generator: Adobe Illustrator 23.0.2, SVG Export Plug-In . SVG Version: 6.00 Build 0)  -->
<svg version="1.1" id="Capa_1" xmlns="http://www.w3.org/2000/svg" xmlns:xlink="http://www.w3.org/1999/xlink" x="0px" y="0px"
	 viewBox="0 0 473.8 473.8" style="enable-background:new 0 0 473.8 473.8;" xml:space="preserve">
<path fill="#d32f58" d="M374.5,293.5c-9.7-10.1-21.4-15.5-33.8-15.5c-12.3,0-24.1,5.3-34.2,15.4l-31.6,31.5c-2.6-1.4-5.2-2.7-7.7-4
	c-3.6-1.8-7-3.5-9.9-5.3c-29.6-18.8-56.5-43.3-82.3-75c-12.5-15.8-20.9-29.1-27-42.6c8.2-7.5,15.8-15.3,23.2-22.8
	c2.8-2.8,5.6-5.7,8.4-8.5c21-21,21-48.2,0-69.2l-27.3-27.3c-3.1-3.1-6.3-6.3-9.3-9.5c-6-6.2-12.3-12.6-18.8-18.6
	c-9.7-9.6-21.3-14.7-33.5-14.7s-24,5.1-34,14.7c-0.1,0.1-0.1,0.1-0.2,0.2l-34,34.3C9.7,89.4,2.4,105,0.8,123.1
	c-2.4,29.2,6.2,56.4,12.8,74.2C29.8,241,54,281.5,90.1,324.9c43.8,52.3,96.5,93.6,156.7,122.7c23,10.9,53.7,23.8,88,26
	c2.1,0.1,4.3,0.2,6.3,0.2c23.1,0,42.5-8.3,57.7-24.8c0.1-0.2,0.3-0.3,0.4-0.5c5.2-6.3,11.2-12,17.5-18.1c4.3-4.1,8.7-8.4,13-12.9
	c9.9-10.3,15.1-22.3,15.1-34.6c0-12.4-5.3-24.3-15.4-34.3L374.5,293.5z M410.3,398.8C410.2,398.8,410.2,398.9,410.3,398.8
	c-3.9,4.2-7.9,8-12.2,12.2c-6.5,6.2-13.1,12.7-19.3,20c-10.1,10.8-22,15.9-37.6,15.9c-1.5,0-3.1,0-4.6-0.1
	c-29.7-1.9-57.3-13.5-78-23.4C202,396,152.3,357.1,111,307.8c-34.1-41.1-56.9-79.1-72-119.9c-9.3-24.9-12.7-44.3-11.2-62.6
	c1-11.7,5.5-21.4,13.8-29.7l34.1-34.1c4.9-4.6,10.1-7.1,15.2-7.1c6.3,0,11.4,3.8,14.6,7c0.1,0.1,0.2,0.2,0.3,0.3
	c6.1,5.7,11.9,11.6,18,17.9c3.1,3.2,6.3,6.4,9.5,9.7l27.3,27.3c10.6,10.6,10.6,20.4,0,31c-2.9,2.9-5.7,5.8-8.6,8.6
	c-8.4,8.6-16.4,16.6-25.1,24.4c-0.2,0.2-0.4,0.3-0.5,0.5c-8.6,8.6-7,17-5.2,22.7c0.1,0.3,0.2,0.6,0.3,0.9
	c7.1,17.2,17.1,33.4,32.3,52.7l0.1,0.1c27.6,34,56.7,60.5,88.8,80.8c4.1,2.6,8.3,4.7,12.3,6.7c3.6,1.8,7,3.5,9.9,5.3
	c0.4,0.2,0.8,0.5,1.2,0.7c3.4,1.7,6.6,2.5,9.9,2.5c8.3,0,13.5-5.2,15.2-6.9l34.2-34.2c3.4-3.4,8.8-7.5,15.1-7.5
	c6.2,0,11.3,3.9,14.4,7.3c0.1,0.1,0.1,0.1,0.2,0.2l55.1,55.1C420.5,377.7,420.5,388.2,410.3,398.8z"/>
<path fill="#d32f58" d="M464.5,140.6c-28.4-15.1-60.4-20.9-92.6-16.7c-32.1,4.1-63,16.5-85.3,39.7c-0.4,0.4-0.8,0.8-1.2,1.3l-31.8,31.8v-88.8
	c0-7.5-6-13.5-13.5-13.5s-13.5,6-13.5,13.5l0.1,121.4c0,3.7,1.5,7.1,3.9,9.5c2.4,2.4,5.8,4,9.5,3.9h121.3c7.5,0,13.5-6,13.5-13.5
	c0-7.5-6-13.5-13.5-13.5l-88.7,0.1l33.2-33.2c19.3-17.4,43.2-28.4,69.3-31.7c26.6-3.4,53,1.4,76.5,13.8c5.9,3.2,13,1.5,17-3.7
	c0.5-0.6,0.8-1.2,1.2-1.9C473.7,152.3,471.1,144.1,464.5,140.6z"/>
</svg>
