<?xml version="1.0" encoding="utf-8"?>
<!-- Generator: Adobe Illustrator 23.0.2, SVG Export Plug-In . SVG Version: 6.00 Build 0)  -->
<svg version="1.1" id="Layer_1" xmlns="http://www.w3.org/2000/svg" xmlns:xlink="http://www.w3.org/1999/xlink" x="0px" y="0px"
	 viewBox="0 0 480 480" style="enable-background:new 0 0 480 480;" xml:space="preserve">
<style type="text/css">
	.st0{stroke:#828181;stroke-width:16;stroke-miterlimit:10;}
</style>
<path class="st0" d="M392.6,51.8H93.6c-35.3,0-64.1,28.7-64.1,64.1v140.6c0,35.3,28.7,64.1,64.1,64.1h19.8L88,440.3
	c-0.5,2.7,0.5,5.4,2.8,7.1c2.2,1.7,5.2,1.9,7.6,0.6l146.5-127.5h147.8c35.3,0,64.1-28.7,64.1-64.1V115.9
	C456.7,80.6,428,51.8,392.6,51.8z M442.5,256.5c0,27.5-22.3,49.8-49.8,49.8H243.1c-1.2,0-2.3,0.3-3.3,0.8L104.9,428.5L129,315
	c0.4-2.1-0.1-4.3-1.4-6c-1.3-1.7-3.4-2.6-5.5-2.6H93.6c-27.5,0-49.8-22.3-49.8-49.8V115.9c0-27.5,22.3-49.8,49.8-49.8h299.1
	c27.5,0,49.8,22.3,49.8,49.8V256.5z"/>
</svg>
