<?xml version="1.0" encoding="utf-8"?>
<!-- Generator: Adobe Illustrator 23.0.2, SVG Export Plug-In . SVG Version: 6.00 Build 0)  -->
<svg version="1.1" id="Capa_1" xmlns="http://www.w3.org/2000/svg" xmlns:xlink="http://www.w3.org/1999/xlink" x="0px" y="0px"
	 viewBox="0 0 594.4 548.5" style="enable-background:new 0 0 594.4 548.5;" xml:space="preserve">
<style type="text/css">
	.st0{opacity:0.19;fill:url(#SVGID_1_);}
	.st1{fill:#FF9901;}
	.st2{fill:#FFC473;}
	.st3{fill:#FFB74F;}
	.st4{fill:#FF8900;}
	.st5{fill:#E67500;}
	.st6{fill:#FFDBA9;}
	.st7{opacity:0.19;fill:url(#SVGID_2_);}
	.st8{fill:#F7B030;}
	.st9{fill:#EBA72E;}
	.st10{fill:#FFD33A;}
	.st11{fill:#EB423F;}
	.st12{font-family:'MyriadPro-Regular';}
	.st13{font-size:113.5447px;}
</style>
<linearGradient id="SVGID_1_" gradientUnits="userSpaceOnUse" x1="362.8014" y1="496.0057" x2="272.2331" y2="260.067">
	<stop  offset="0" style="stop-color:#FFFFFF"/>
	<stop  offset="1" style="stop-color:#000000"/>
</linearGradient>
<polygon class="st0" points="589.7,331.8 462.4,275.1 19.5,357.1 269.1,451.1 465.2,456.7 "/>
<path class="st1" d="M368,71.2l-9.3,3.2L19.9,73.5L15,71.2l187.5-51.9c2.8-0.9,7.6-2.3,9.2-2.3h246.8c1.6,0,3.2,0.9,4,2.3L368,71.2z
	"/>
<path class="st2" d="M363.5,357.1H19.5c-2.5,0-4.5-2-4.5-4.5V71.2h353v281.4C368,355,366,357.1,363.5,357.1z"/>
<path class="st3" d="M350.3,71.2v47.7c0,121.4-98.4,219.8-219.8,219.8H15v13.9c0,2.5,2,4.5,4.5,4.5h343.9c2.5,0,4.5-2,4.5-4.5V71.2
	H350.3z"/>
<path class="st4" d="M458.5,17h-45.1L310.3,71.2H368l94.4-51.8C461.6,17.9,460.1,17,458.5,17z"/>
<polygon class="st5" points="227.2,71.2 149.8,71.2 302.4,17 361,17 "/>
<path class="st3" d="M221.4,148.6h-65.9c-3.2,0-5.8-2.6-5.8-5.8V71.2h77.5v71.7C227.1,146,224.5,148.6,221.4,148.6z"/>
<path class="st6" d="M133.3,318.2H57.2c-2.7,0-4.8-2.2-4.8-4.8v-65.6c0-2.7,2.2-4.8,4.8-4.8h76.1c2.7,0,4.8,2.2,4.8,4.8v65.6
	C138.1,316,136,318.2,133.3,318.2z"/>
<g>
	<path class="st5" d="M133.1,114.1H52.4c-3.4,0-6.2-2.8-6.2-6.2s2.8-6.2,6.2-6.2h80.7c3.4,0,6.2,2.8,6.2,6.2
		C139.3,111.4,136.5,114.1,133.1,114.1z"/>
	<path class="st5" d="M106.2,140.7H52.4c-3.4,0-6.2-2.8-6.2-6.2s2.8-6.2,6.2-6.2h53.8c3.4,0,6.2,2.8,6.2,6.2
		C112.3,138,109.6,140.7,106.2,140.7z"/>
</g>
<polygon class="st5" points="462.4,275.1 365.7,356.5 364.1,357 368,352.9 368,71.2 462.4,19.2 "/>
<g>
	<linearGradient id="SVGID_2_" gradientUnits="userSpaceOnUse" x1="315.7696" y1="537.9343" x2="279.0452" y2="442.2639">
		<stop  offset="0" style="stop-color:#FFFFFF"/>
		<stop  offset="1" style="stop-color:#000000"/>
	</linearGradient>
	<ellipse class="st7" cx="297.4" cy="490.1" rx="80.3" ry="45.4"/>
	<g>
		<path class="st8" d="M280.3,334h-22.8v156.1h22.8c43.1,0,78-34.9,78-78S323.4,334,280.3,334z"/>
		<g>
			<path class="st9" d="M358.3,412.1h-22.8c-1.8,0-3.3-1.5-3.3-3.3c0-1.8,1.5-3.3,3.3-3.3h22.5C358.2,407.7,358.3,409.9,358.3,412.1
				z"/>
			<path class="st9" d="M353.9,386h-24.8c-1.8,0-3.3-1.5-3.3-3.3c0-1.8,1.5-3.3,3.3-3.3h22.2C352.2,381.7,353.1,383.8,353.9,386z"/>
			<path class="st9" d="M338.4,360h-25.6c-1.8,0-3.3-1.5-3.3-3.3c0-1.8,1.5-3.3,3.3-3.3h19.1C334.2,355.6,336.4,357.7,338.4,360
				L338.4,360z"/>
			<path class="st9" d="M355.9,431.6c-0.6,2.2-1.2,4.4-2,6.5h-21.6c-1.8,0-3.3-1.5-3.3-3.3c0-1.8,1.5-3.3,3.3-3.3H355.9z"/>
			<path class="st9" d="M343.7,457.6c-1.6,2.3-3.4,4.4-5.2,6.5H316c-1.8,0-3.3-1.5-3.3-3.3c0-1.8,1.5-3.3,3.3-3.3H343.7z"/>
		</g>
		<circle class="st10" cx="260.8" cy="412.1" r="78"/>
		<path class="st11" d="M182.3,321c7.7-4.8,9.3-11.9,9.8-19.5c-0.1,7.2,2.6,15.4,9.8,19.5c-6.7,4.6-9.1,13.5-9.8,19.5
			C191.5,334.5,189,325.6,182.3,321z"/>
		<path class="st11" d="M283.5,334c7.7-4.8,9.3-11.9,9.8-19.5c-0.1,7.2,2.6,15.4,9.8,19.5c-6.7,4.6-9.1,13.5-9.8,19.5
			C292.7,347.5,290.2,338.6,283.5,334z"/>
		<path class="st11" d="M202.2,470.6c7.7-4.8,9.3-11.9,9.8-19.5c-0.1,7.2,2.6,15.4,9.8,19.5c-6.7,4.6-9.1,13.5-9.8,19.5
			C211.4,484.1,208.9,475.2,202.2,470.6z"/>
		<path class="st9" d="M260.8,473.8c-8.3,0-16.4-1.6-24-4.8c-1.7-0.7-2.4-2.6-1.7-4.3c0.7-1.7,2.6-2.4,4.3-1.7l0,0
			c6.8,2.9,14.1,4.3,21.5,4.3c30.5,0,55.3-24.8,55.3-55.3c0-10.9-3.2-21.6-9.3-30.7c-1-1.5-0.6-3.5,0.9-4.5c1.5-1,3.5-0.6,4.5,0.9
			c6.8,10.2,10.4,22.1,10.4,34.3C322.5,446.1,294.8,473.8,260.8,473.8z"/>
		<path class="st9" d="M204.5,431.6c-1.4,0-2.7-1-3.1-2.4c-1.6-5.6-2.4-11.4-2.4-17.2c0-34.1,27.7-61.8,61.8-61.8
			c3.4,0,6.9,0.3,10.3,0.9c1.8,0.3,3,2,2.7,3.7c-0.3,1.8-2,3-3.7,2.7c0,0,0,0,0,0c-3-0.5-6.1-0.8-9.2-0.8
			c-30.5,0-55.3,24.8-55.3,55.3c0,5.2,0.7,10.4,2.2,15.4c0.5,1.7-0.5,3.5-2.2,4C205.1,431.5,204.8,431.6,204.5,431.6L204.5,431.6z"
			/>
		<text transform="matrix(1 0 0 1 230.4054 448.7144)" class="st5 st12 st13">0</text>
	</g>
</g>
</svg>
