<?xml version="1.0" encoding="UTF-8"?>
<svg xmlns="http://www.w3.org/2000/svg" xmlns:xlink="http://www.w3.org/1999/xlink" width="253.75pt" height="253.75pt" viewBox="0 0 253.75 253.75" version="1.1">
<g id="surface1">
<path style=" stroke:none;fill-rule:nonzero;fill:#e61922;fill-opacity:1;" d="M 126.8125 253.75 L 126.9375 253.75 C 196.972656 253.75 253.75 196.972656 253.75 126.9375 L 253.75 126.875 C 253.75 56.804688 196.945312 0 126.875 0 C 56.804688 0 0 56.804688 0 126.875 L 0 126.9375 C 0 196.972656 56.777344 253.75 126.8125 253.75 "/>
<path style=" stroke:none;fill-rule:nonzero;fill:rgb(100%,100%,100%);fill-opacity:1;" d="M 113.34375 147.050781 L 113.34375 108.273438 L 150.316406 127.660156 Z M 195.515625 94.925781 C 193.800781 87.488281 187.71875 82 180.398438 81.183594 C 163.058594 79.246094 145.503906 79.238281 128.03125 79.246094 C 110.554688 79.238281 93 79.246094 75.660156 81.183594 C 68.339844 82 62.257812 87.488281 60.546875 94.925781 C 58.113281 105.519531 58.085938 117.078125 58.085938 127.984375 C 58.085938 138.890625 58.085938 150.449219 60.519531 161.042969 C 62.230469 168.480469 68.308594 173.96875 75.632812 174.785156 C 92.972656 176.71875 110.527344 176.730469 128 176.71875 C 145.476562 176.730469 163.027344 176.71875 180.367188 174.78125 C 187.691406 173.96875 193.773438 168.480469 195.488281 161.042969 C 197.921875 150.449219 197.9375 138.890625 197.9375 127.984375 C 197.9375 117.078125 197.949219 105.519531 195.515625 94.925781 "/>
</g>
</svg>
