<?xml version="1.0" encoding="utf-8"?>
<!-- Generator: Adobe Illustrator 23.0.2, SVG Export Plug-In . SVG Version: 6.00 Build 0)  -->
<svg version="1.1" id="Layer_1" xmlns="http://www.w3.org/2000/svg" xmlns:xlink="http://www.w3.org/1999/xlink" x="0px" y="0px"
	 viewBox="0 0 511 511" style="enable-background:new 0 0 511 511;" xml:space="preserve">
<style type="text/css">
	.st0{fill:#FED42D;}
	.st1{fill:#FCBF29;}
</style>
<path class="st0" d="M255.5,11C255.5,11,255.5,11,255.5,11c-10.9,0-20.7,6.5-25,16.5L172.2,164L24.7,177.3c-10.8,1-20,8.3-23.4,18.7
	c-3.4,10.4-0.2,21.7,8,28.9l111.5,97.8L87.9,467.5c-2.4,10.6,1.7,21.6,10.6,28c4.7,3.4,10.3,5.2,15.9,5.2c4.8,0,9.6-1.3,13.9-3.9
	l127.2-76.1l0,0V11z"/>
<path class="st1" d="M255.5,11C255.5,11,255.5,11,255.5,11c10.9,0,20.7,6.5,25,16.5L338.8,164l147.5,13.4c10.8,1,20,8.3,23.4,18.7
	c3.4,10.4,0.2,21.7-8,28.9l-111.5,97.8l32.9,144.8c2.4,10.6-1.7,21.6-10.6,28c-4.7,3.4-10.3,5.2-15.9,5.2c-4.8,0-9.6-1.3-13.9-3.9
	l-127.2-76.1l0,0V11z"/>
</svg>
