<?xml version="1.0" encoding="UTF-8"?>
<svg xmlns="http://www.w3.org/2000/svg" xmlns:xlink="http://www.w3.org/1999/xlink" width="253.75pt" height="253.688pt" viewBox="0 0 253.75 253.688" version="1.1">
<defs>
<clipPath id="clip1">
  <path d="M 0 0 L 253.75 0 L 253.75 253.6875 L 0 253.6875 Z M 0 0 "/>
</clipPath>
</defs>
<g id="surface1">
<g clip-path="url(#clip1)" clip-rule="nonzero">
<path style=" stroke:none;fill-rule:nonzero;fill:#ff9b22;fill-opacity:1;" d="M 126.8125 253.6875 L 126.9375 253.6875 C 196.972656 253.6875 253.75 196.914062 253.75 126.875 C 253.75 56.804688 196.945312 0 126.875 0 C 56.804688 0 0 56.804688 0 126.875 C 0 196.914062 56.777344 253.6875 126.8125 253.6875 "/>
</g>
<path style=" stroke:none;fill-rule:nonzero;fill:rgb(100%,100%,100%);fill-opacity:1;" d="M 126.375 80.144531 C 134.519531 80.144531 141.144531 86.769531 141.144531 94.914062 C 141.144531 103.050781 134.519531 109.675781 126.375 109.675781 C 118.238281 109.675781 111.605469 103.050781 111.605469 94.914062 C 111.605469 86.769531 118.238281 80.144531 126.375 80.144531 M 126.375 130.574219 C 146.050781 130.574219 162.046875 114.578125 162.046875 94.914062 C 162.046875 75.242188 146.050781 59.242188 126.375 59.242188 C 106.703125 59.242188 90.707031 75.242188 90.707031 94.914062 C 90.707031 114.578125 106.703125 130.574219 126.375 130.574219 "/>
<path style=" stroke:none;fill-rule:nonzero;fill:rgb(100%,100%,100%);fill-opacity:1;" d="M 140.808594 159.671875 C 148.070312 158.015625 155.070312 155.144531 161.519531 151.09375 C 166.402344 148.015625 167.871094 141.5625 164.796875 136.683594 C 161.722656 131.789062 155.277344 130.320312 150.386719 133.394531 C 135.777344 142.585938 116.960938 142.578125 102.359375 133.394531 C 97.472656 130.320312 91.023438 131.789062 87.953125 136.683594 C 84.878906 141.566406 86.347656 148.015625 91.226562 151.09375 C 97.675781 155.140625 104.679688 158.015625 111.941406 159.671875 L 91.996094 179.613281 C 87.921875 183.695312 87.921875 190.308594 92 194.390625 C 94.042969 196.429688 96.71875 197.449219 99.390625 197.449219 C 102.066406 197.449219 104.742188 196.429688 106.785156 194.390625 L 126.371094 174.792969 L 145.976562 194.390625 C 150.054688 198.472656 156.667969 198.472656 160.75 194.390625 C 164.832031 190.308594 164.832031 183.691406 160.75 179.613281 Z M 140.808594 159.671875 "/>
</g>
</svg>
