<?xml version="1.0" encoding="UTF-8"?>
<svg xmlns="http://www.w3.org/2000/svg" xmlns:xlink="http://www.w3.org/1999/xlink" width="253.75pt" height="253.75pt" viewBox="0 0 253.75 253.75" version="1.1">
<g id="surface1">
<path style=" stroke:none;fill-rule:nonzero;fill:#5d8dc1;fill-opacity:1;" d="M 126.8125 253.75 L 126.9375 253.75 C 196.972656 253.75 253.75 196.972656 253.75 126.9375 L 253.75 126.875 C 253.75 56.804688 196.945312 0 126.875 0 C 56.804688 0 0 56.804688 0 126.875 L 0 126.9375 C 0 196.972656 56.777344 253.75 126.8125 253.75 "/>
<path style=" stroke:none;fill-rule:nonzero;fill:rgb(100%,100%,100%);fill-opacity:1;" d="M 147.007812 158.542969 C 145.679688 160.941406 143.578125 162.761719 140.699219 164.003906 C 137.425781 165.414062 134.207031 166.597656 131.046875 166.710938 C 127.882812 166.824219 122.179688 167.300781 113.9375 167.300781 L 111.425781 167.300781 L 111.425781 134.75 L 118.089844 134.75 C 123.734375 134.75 128.234375 134.855469 131.597656 134.9375 C 134.953125 135.023438 137.59375 135.464844 139.515625 136.195312 C 142.675781 137.324219 145.046875 139.003906 146.628906 141.207031 C 148.207031 143.410156 149 146.464844 149 150.363281 C 149 153.410156 148.335938 156.140625 147.007812 158.542969 M 111.425781 86.449219 L 114.449219 86.449219 C 120.09375 86.449219 124.339844 86.566406 127.191406 86.652344 C 130.042969 86.738281 132.511719 87.269531 134.601562 88.171875 C 136.804688 89.132812 138.425781 90.703125 139.472656 92.851562 C 140.515625 94.996094 141.039062 97.09375 141.039062 99.125 C 141.039062 101.894531 140.558594 104.324219 139.597656 106.414062 C 138.636719 108.503906 136.886719 110.140625 134.347656 111.328125 C 132.03125 112.398438 129.789062 113.230469 127.617188 113.34375 C 125.441406 113.457031 121.644531 113.75 116.226562 113.75 L 111.425781 113.75 Z M 174.410156 130.511719 C 169.722656 125.460938 162.875 122.113281 155.523438 120.476562 L 155.523438 119.796875 C 160.773438 117.542969 165.359375 114.011719 168.4375 109.214844 C 171.511719 104.414062 173.136719 98.9375 173.136719 92.785156 C 173.136719 87.476562 172.0625 82.792969 169.832031 78.726562 C 167.601562 74.660156 164.25 71.414062 159.730469 68.988281 C 155.554688 66.730469 151.09375 65.179688 146.324219 64.476562 C 141.550781 63.769531 134.546875 63.351562 125.289062 63.351562 L 79.925781 63.351562 L 79.925781 190.398438 L 131.214844 190.398438 C 139.964844 190.398438 147.175781 189.199219 152.851562 187.617188 C 158.527344 186.039062 163.734375 183.179688 168.476562 179.453125 C 172.484375 176.347656 175.675781 172.320312 178.046875 167.578125 C 180.417969 162.835938 181.519531 157.277344 181.519531 151.015625 C 181.519531 142.433594 179.09375 135.5625 174.410156 130.511719 "/>
</g>
</svg>
