<?xml version="1.0" encoding="UTF-8"?>
<svg xmlns="http://www.w3.org/2000/svg" xmlns:xlink="http://www.w3.org/1999/xlink" width="253.75pt" height="253.75pt" viewBox="0 0 253.75 253.75" version="1.1">
<g id="surface1">
<path style=" stroke:none;fill-rule:nonzero;fill:#364db8;fill-opacity:1;" d="M 126.8125 253.75 L 126.9375 253.75 C 196.972656 253.75 253.75 196.972656 253.75 126.9375 L 253.75 126.875 C 253.75 56.804688 196.945312 0 126.875 0 C 56.804688 0 0 56.804688 0 126.875 L 0 126.9375 C 0 196.972656 56.777344 253.75 126.8125 253.75 "/>
<path style=" stroke:none;fill-rule:nonzero;fill:rgb(100%,100%,100%);fill-opacity:1;" d="M 138.8125 207.398438 L 138.8125 137.074219 L 162.414062 137.074219 L 165.949219 109.667969 L 138.8125 109.667969 L 138.8125 92.167969 C 138.8125 84.234375 141.015625 78.828125 152.390625 78.828125 L 166.90625 78.820312 L 166.90625 54.308594 C 164.394531 53.976562 155.78125 53.230469 145.757812 53.230469 C 124.835938 53.230469 110.507812 66 110.507812 89.457031 L 110.507812 109.667969 L 86.84375 109.667969 L 86.84375 137.074219 L 110.507812 137.074219 L 110.507812 207.398438 Z M 138.8125 207.398438 "/>
</g>
</svg>
