<?xml version="1.0" encoding="utf-8"?>
<!-- Generator: Adobe Illustrator 21.0.0, SVG Export Plug-In . SVG Version: 6.00 Build 0)  -->
<svg version="1.1" id="Capa_1" xmlns="http://www.w3.org/2000/svg" xmlns:xlink="http://www.w3.org/1999/xlink" x="0px" y="0px"
	 viewBox="0 0 512 512" style="enable-background:new 0 0 512 512;" xml:space="preserve">
<style type="text/css">
	.st0{fill:url(#SVGID_1_);}
	.st1{fill:url(#SVGID_2_);}
	.st2{fill:url(#SVGID_3_);}
	.st3{fill:url(#SVGID_4_);}
	.st4{fill:url(#SVGID_5_);}
	.st5{fill:url(#SVGID_6_);}
	.st6{fill:url(#SVGID_7_);}
	.st7{fill:url(#SVGID_8_);}
	.st8{fill:url(#SVGID_9_);}
	.st9{fill:url(#SVGID_10_);}
	.st10{fill:url(#SVGID_11_);}
	.st11{fill:url(#SVGID_12_);}
	.st12{fill:url(#SVGID_13_);}
	.st13{fill:url(#SVGID_14_);}
	.st14{fill:url(#SVGID_15_);}
	.st15{fill:url(#SVGID_16_);}
	.st16{fill:url(#SVGID_17_);}
	.st17{fill:#CE3636;}
	.st18{fill:#A01313;}
</style>
<linearGradient id="SVGID_1_" gradientUnits="userSpaceOnUse" x1="186.6932" y1="398.8893" x2="373.3682" y2="641.7183" gradientTransform="matrix(1.0039 0 0 1.0039 1.2827 -81.9881)">
	<stop  offset="0" style="stop-color:#4A98F7"/>
	<stop  offset="1" style="stop-color:#0469BC"/>
</linearGradient>
<path class="st0" d="M255.6,224.6c-66.4,0.2-119.8,55.1-119.8,121.5V506c0,4.9,5.5,7.7,9.5,4.9l99.3-69.2c6.8-4.8,15.9-4.8,22.8,0
	l99.3,69.2c4,2.8,9.5-0.1,9.5-4.9V344.8C376.2,278.3,322.2,224.4,255.6,224.6L255.6,224.6z"/>
<linearGradient id="SVGID_2_" gradientUnits="userSpaceOnUse" x1="262.5988" y1="513.3942" x2="254.2577" y2="395.7802" gradientTransform="matrix(1.0039 0 0 1.0039 1.2827 -81.9881)">
	<stop  offset="0" style="stop-color:#0469BC;stop-opacity:0"/>
	<stop  offset="1" style="stop-color:#0469BC"/>
</linearGradient>
<path class="st1" d="M376.2,506V344.8c0-66.5-54.1-120.4-120.6-120.2c-57.1,0.2-104.5,40.7-116.7,94.3l0.3,1.5l117.7,117.7
	c3.7,0.2,7.3,1.3,10.5,3.5l99.3,69.2C370.7,513.7,376.2,510.8,376.2,506z"/>
<linearGradient id="SVGID_3_" gradientUnits="userSpaceOnUse" x1="136.2768" y1="406.8105" x2="243.9478" y2="546.8705" gradientTransform="matrix(1.0039 0 0 1.0039 1.2827 -81.9881)">
	<stop  offset="0" style="stop-color:#F9F7FC"/>
	<stop  offset="1" style="stop-color:#F0DDFC"/>
</linearGradient>
<path class="st2" d="M186.9,246.8v235.1l-25.6,17.8V271.4C168.6,262,177.2,253.7,186.9,246.8L186.9,246.8z"/>
<linearGradient id="SVGID_4_" gradientUnits="userSpaceOnUse" x1="291.5899" y1="399.7362" x2="416.5339" y2="562.2652" gradientTransform="matrix(1.0039 0 0 1.0039 1.2827 -81.9881)">
	<stop  offset="0" style="stop-color:#F9F7FC"/>
	<stop  offset="1" style="stop-color:#F0DDFC"/>
</linearGradient>
<path class="st3" d="M350.7,270.8v229L325.1,482V246.4C334.8,253.3,343.4,261.5,350.7,270.8L350.7,270.8z"/>
<linearGradient id="SVGID_5_" gradientUnits="userSpaceOnUse" x1="303.3224" y1="433.625" x2="101.5074" y2="286.964" gradientTransform="matrix(1.0039 0 0 1.0039 1.2827 -81.9881)">
	<stop  offset="0" style="stop-color:#18CFFC;stop-opacity:0"/>
	<stop  offset="1" style="stop-color:#65E1DC"/>
</linearGradient>
<path class="st4" d="M256,224.6v213.5c4,0,8,1.2,11.4,3.6l99.3,69.2c4,2.8,9.5-0.1,9.5-4.9V344.8C376.2,278.4,322.4,224.6,256,224.6
	L256,224.6z"/>
<linearGradient id="SVGID_6_" gradientUnits="userSpaceOnUse" x1="253.7278" y1="567.9375" x2="253.7278" y2="397.0545" gradientTransform="matrix(1.0039 0 0 1.0039 1.2827 -81.9881)">
	<stop  offset="0" style="stop-color:#0469BC;stop-opacity:0"/>
	<stop  offset="1" style="stop-color:#0469BC"/>
</linearGradient>
<path class="st5" d="M366.7,491.4l-99.3-69.2c-6.8-4.8-15.9-4.8-22.8,0l-99.3,69.2c-4,2.8-9.5-0.1-9.5-4.9V506
	c0,4.9,5.5,7.7,9.5,4.9l99.3-69.2c6.8-4.8,15.9-4.8,22.8,0l99.3,69.2c4,2.8,9.5-0.1,9.5-4.9v-19.5
	C376.2,491.3,370.7,494.2,366.7,491.4L366.7,491.4z"/>
<linearGradient id="SVGID_7_" gradientUnits="userSpaceOnUse" x1="172.1459" y1="515.0855" x2="172.1459" y2="389.0545" gradientTransform="matrix(1.0039 0 0 1.0039 1.2827 -81.9881)">
	<stop  offset="0" style="stop-color:#F0DDFC;stop-opacity:0"/>
	<stop  offset="0.2889" style="stop-color:#C8B7E0;stop-opacity:0.289"/>
	<stop  offset="0.5915" style="stop-color:#A595C8;stop-opacity:0.592"/>
	<stop  offset="0.8395" style="stop-color:#8F81B8;stop-opacity:0.84"/>
	<stop  offset="1" style="stop-color:#8779B3"/>
</linearGradient>
<path class="st6" d="M186.9,246.7v121.4l-25.6-25.6v-71.2c0.5-0.7,1-1.3,1.6-2s1.1-1.4,1.7-2.1c0.5-0.6,0.9-1.1,1.4-1.6
	c1-1.1,1.9-2.2,2.9-3.2c0.4-0.4,0.7-0.8,1.1-1.1c1-1,1.9-2,2.9-3c1-0.9,2-1.9,3-2.8c0.2-0.2,0.4-0.3,0.6-0.5c0.5-0.5,1-0.9,1.6-1.4
	c0.9-0.8,1.7-1.5,2.6-2.2c0.4-0.3,0.8-0.7,1.3-1c0.4-0.3,0.8-0.6,1.2-0.9c0.8-0.6,1.6-1.2,2.5-1.8
	C186,247.4,186.5,247.1,186.9,246.7L186.9,246.7z"/>
<linearGradient id="SVGID_8_" gradientUnits="userSpaceOnUse" x1="335.3096" y1="515.0855" x2="335.3096" y2="389.0545" gradientTransform="matrix(1.0039 0 0 1.0039 1.2827 -81.9881)">
	<stop  offset="0" style="stop-color:#F0DDFC;stop-opacity:0"/>
	<stop  offset="0.2889" style="stop-color:#C8B7E0;stop-opacity:0.289"/>
	<stop  offset="0.5915" style="stop-color:#A595C8;stop-opacity:0.592"/>
	<stop  offset="0.8395" style="stop-color:#8F81B8;stop-opacity:0.84"/>
	<stop  offset="1" style="stop-color:#8779B3"/>
</linearGradient>
<path class="st7" d="M350.7,270.8v229L325.1,482V246.4C334.8,253.3,343.4,261.5,350.7,270.8L350.7,270.8z"/>
<linearGradient id="SVGID_9_" gradientUnits="userSpaceOnUse" x1="74.9251" y1="260.5719" x2="432.5304" y2="260.5719" gradientTransform="matrix(1.0039 0 0 1.0039 1.2827 -81.9881)">
	<stop  offset="0" style="stop-color:#FFDA45"/>
	<stop  offset="1" style="stop-color:#FFA425"/>
</linearGradient>
<path class="st8" d="M435.5,160.6C435.5,71.9,355.2,0,256,0S76.5,71.9,76.5,160.6v38c0,88.7,80.4,160.6,179.5,160.6
	s179.5-71.9,179.5-160.6C435.5,198.4,435.5,160.7,435.5,160.6z"/>
<linearGradient id="SVGID_10_" gradientUnits="userSpaceOnUse" x1="333.919" y1="286.5615" x2="461.5629" y2="327.9405" gradientTransform="matrix(1.0039 0 0 1.0039 1.2827 -81.9881)">
	<stop  offset="0" style="stop-color:#FFDA45;stop-opacity:0"/>
	<stop  offset="0.5194" style="stop-color:#D9874F;stop-opacity:0.519"/>
	<stop  offset="1" style="stop-color:#B53759"/>
</linearGradient>
<path class="st9" d="M435.5,160.6C435.5,71.9,355.2,0,256,0S76.5,71.9,76.5,160.6v38c0,88.7,80.4,160.6,179.5,160.6
	s179.5-71.9,179.5-160.6C435.5,198.4,435.5,160.7,435.5,160.6z"/>
<linearGradient id="SVGID_11_" gradientUnits="userSpaceOnUse" x1="236.7025" y1="227.7814" x2="383.6995" y2="510.4674" gradientTransform="matrix(1.0039 0 0 1.0039 1.2827 -81.9881)">
	<stop  offset="0" style="stop-color:#FFDA45;stop-opacity:0"/>
	<stop  offset="0.5194" style="stop-color:#D9874F;stop-opacity:0.519"/>
	<stop  offset="1" style="stop-color:#B53759"/>
</linearGradient>
<path class="st10" d="M403.9,69.5C371.5,27.5,317.3,0,256,0S140.5,27.5,108.1,69.5v220.1c32.4,42,86.5,69.5,147.9,69.5
	s115.5-27.5,147.9-69.5V69.5z"/>
<linearGradient id="SVGID_12_" gradientUnits="userSpaceOnUse" x1="248.2254" y1="316.3321" x2="230.8634" y2="492.4331" gradientTransform="matrix(1.0039 0 0 1.0039 1.2827 -81.9881)">
	<stop  offset="0" style="stop-color:#FFDA45;stop-opacity:0"/>
	<stop  offset="0.5194" style="stop-color:#D9874F;stop-opacity:0.519"/>
	<stop  offset="1" style="stop-color:#B53759"/>
</linearGradient>
<path class="st11" d="M150.7,328.6c29.6,19.2,66,30.5,105.3,30.5s75.7-11.3,105.3-30.5v-298C331.7,11.3,295.3,0,256,0
	s-75.7,11.3-105.3,30.5V328.6z"/>
<linearGradient id="SVGID_13_" gradientUnits="userSpaceOnUse" x1="218.3048" y1="325.3091" x2="164.6338" y2="423.471" gradientTransform="matrix(1.0039 0 0 1.0039 1.2827 -81.9881)">
	<stop  offset="0" style="stop-color:#FFDA45;stop-opacity:0"/>
	<stop  offset="0.5194" style="stop-color:#D9874F;stop-opacity:0.519"/>
	<stop  offset="1" style="stop-color:#B53759"/>
</linearGradient>
<path class="st12" d="M215.2,354.9c13.1,2.7,26.8,4.2,40.8,4.2s27.7-1.4,40.8-4.2V4.2C283.7,1.4,270,0,256,0s-27.7,1.4-40.8,4.2
	V354.9z"/>
<linearGradient id="SVGID_14_" gradientUnits="userSpaceOnUse" x1="74.9251" y1="241.6457" x2="432.5304" y2="241.6457" gradientTransform="matrix(1.0039 0 0 1.0039 1.2827 -81.9881)">
	<stop  offset="0" style="stop-color:#FFDA45"/>
	<stop  offset="1" style="stop-color:#FFA425"/>
</linearGradient>
<ellipse class="st13" cx="256" cy="160.6" rx="179.5" ry="160.6"/>
<linearGradient id="SVGID_15_" gradientUnits="userSpaceOnUse" x1="-1421.8417" y1="241.6457" x2="-1104.0809" y2="241.6457" gradientTransform="matrix(-1.0039 0 0 1.0039 -1011.8869 -81.9881)">
	<stop  offset="0" style="stop-color:#FFDA45"/>
	<stop  offset="1" style="stop-color:#FFA425"/>
</linearGradient>
<ellipse class="st14" cx="256" cy="160.6" rx="159.5" ry="142.7"/>
<linearGradient id="SVGID_16_" gradientUnits="userSpaceOnUse" x1="109.8887" y1="241.6457" x2="397.5667" y2="241.6457" gradientTransform="matrix(1.0039 0 0 1.0039 1.2827 -81.9881)">
	<stop  offset="0" style="stop-color:#FFDA45"/>
	<stop  offset="1" style="stop-color:#FFA425"/>
</linearGradient>
<ellipse class="st15" cx="256" cy="160.6" rx="144.4" ry="129.1"/>
<linearGradient id="SVGID_17_" gradientUnits="userSpaceOnUse" x1="245.7737" y1="228.4727" x2="151.2717" y2="97.3907" gradientTransform="matrix(1.0039 0 0 1.0039 1.2827 -81.9881)">
	<stop  offset="0" style="stop-color:#FFDA45;stop-opacity:0"/>
	<stop  offset="1" style="stop-color:#FCEE21"/>
</linearGradient>
<ellipse class="st16" cx="256.9" cy="159.7" rx="129.1" ry="115.5"/>
<path class="st17" d="M159.4,161.7c0,29.2,16.3,55,41.3,70.6c4.4,2.8,4.6,8.5,0.4,11.4l-0.1,0.1c-2.8,1.9-6.6,2.1-9.5,0.3
	c-29.2-18.2-48.2-48.3-48.2-82.4c0-55.3,51.5-100.1,113.6-100.6v14.3C203.7,75.9,159.4,114.3,159.4,161.7z"/>
<path class="st18" d="M259.8,48.2l29.7,18c1.6,1,1.6,3,0,4l-29.7,18c-1.8,1.1-4.3-0.1-4.3-2v-36C255.5,48.3,258,47.1,259.8,48.2z"/>
<path class="st17" d="M355.8,161.2c0-29.2-16.3-55-41.3-70.6c-4.4-2.8-4.6-8.5-0.4-11.4l0.1-0.1c2.8-1.9,6.6-2.1,9.5-0.3
	C352.9,97,372,127.2,372,161.2c0,55.3-51.4,100.1-113.5,100.6v-14.3C311.7,247,355.8,208.6,355.8,161.2z"/>
<path class="st18" d="M255.4,274.7l-29.7-18c-1.6-1-1.6-3,0-4l29.7-18c1.8-1.1,4.3,0.1,4.3,2v36.1
	C259.7,274.6,257.3,275.8,255.4,274.7z"/>
<path class="st17" d="M308,145.7l-48.6,35.8l-12.2,9c-2.9,2.1-6.5,3.3-10.3,3.3c-0.6,0-1.2,0-1.9-0.1c-4.3-0.5-8.3-2.5-10.9-5.6
	l-18.9-22.4c-4.3-5.1-3.1-12.2,2.6-16c5.7-3.8,13.8-2.8,18,2.3l12.8,15.1l0.1-0.1l52.9-39c5.5-4,13.6-3.4,18.1,1.5
	C314.2,134.5,313.5,141.7,308,145.7z"/>
<path class="st18" d="M308,145.5l-48.6,35.8c-7.9-3.5-14.9-8.4-20.7-14.5l52.9-39c5.5-4,13.6-3.4,18.1,1.5
	C314.2,134.2,313.5,141.4,308,145.5z"/>
</svg>
